<?xml version="1.0" standalone="no"?>
<!DOCTYPE svg PUBLIC "-//W3C//DTD SVG 20010904//EN"
 "http://www.w3.org/TR/2001/REC-SVG-20010904/DTD/svg10.dtd">
<svg version="1.0" xmlns="http://www.w3.org/2000/svg"
 width="2048.000000pt" height="2048.000000pt" viewBox="0 0 2048.000000 2048.000000"
 preserveAspectRatio="xMidYMid meet">

<g transform="translate(0.000000,2048.000000) scale(0.100000,-0.100000)"
fill="#000000" stroke="none">
<path d="M13478 13250 c-310 -22 -621 -73 -943 -155 -669 -170 -1267 -427
-1825 -785 -120 -77 -330 -225 -414 -291 -27 -22 -52 -39 -56 -39 -4 0 -66 44
-136 97 -552 415 -1253 762 -1934 958 -447 128 -844 197 -1212 212 l-157 6
-35 -35 -36 -36 -1 -1954 c-2 -2708 -1 -2886 19 -2920 25 -42 66 -55 197 -63
716 -39 1465 -230 2150 -547 227 -105 581 -295 570 -306 -2 -2 -50 12 -107 31
-665 225 -1234 346 -1848 391 -390 30 -912 29 -1272 0 l-76 -7 -1 2151 -2
2151 52 15 c28 9 73 19 100 22 l49 7 0 148 c0 82 -2 149 -4 149 -32 0 -284
-67 -322 -85 -67 -33 -128 -99 -167 -183 l-32 -67 -3 -2270 c-2 -2197 -2
-2271 16 -2305 11 -19 34 -46 53 -59 38 -26 58 -26 394 5 236 21 960 30 1236
15 605 -34 1190 -125 1751 -272 116 -31 125 -35 162 -76 83 -94 249 -183 397
-213 292 -61 593 14 771 192 l60 60 211 53 c472 119 973 203 1472 245 355 31
1070 23 1515 -16 96 -9 196 -16 221 -17 55 -1 105 25 137 73 l22 33 -2 2276
-3 2276 -28 59 c-52 111 -120 176 -223 211 -38 13 -254 65 -271 65 -1 0 -3
-67 -3 -150 0 -148 0 -150 22 -150 29 0 151 -30 161 -40 11 -9 9 -4306 -1
-4303 -4 1 -83 6 -177 12 -703 43 -1303 9 -1938 -110 -247 -46 -656 -152 -924
-240 -135 -44 -247 -78 -249 -76 -9 8 383 218 565 303 670 313 1442 510 2151
550 133 7 165 17 199 60 l21 27 0 2414 c0 2218 -1 2417 -16 2443 -36 60 -85
71 -256 60z m-6150 -295 c799 -111 1601 -409 2297 -854 109 -70 272 -185 429
-303 l59 -45 -2 -369 c-1 -207 3 -375 8 -383 18 -28 193 -41 226 -17 18 13 19
32 16 389 l-2 375 123 92 c511 384 1123 702 1728 898 367 119 868 222 1203
248 l87 7 0 -2247 c0 -1247 -4 -2246 -9 -2246 -4 0 -77 -7 -162 -15 -282 -29
-602 -81 -845 -140 -726 -174 -1425 -475 -2005 -862 -57 -38 -110 -73 -116
-77 -10 -6 -13 84 -12 436 l1 443 87 80 c47 44 115 107 151 139 l65 60 3 151
3 152 107 100 c59 55 117 105 129 111 36 20 68 14 99 -19 77 -81 204 -112 295
-72 105 47 153 118 153 228 0 79 -20 130 -76 185 -107 107 -292 90 -376 -34
-18 -27 -35 -66 -38 -87 l-7 -39 -49 0 -50 0 -151 -136 c-219 -196 -197 -159
-197 -333 l0 -147 -90 -83 -90 -82 0 368 1 368 57 36 c79 49 116 117 116 209
-1 75 -18 121 -64 174 -154 175 -440 64 -440 -171 0 -100 39 -172 121 -223
l49 -30 0 -365 c0 -201 -3 -365 -6 -365 -3 0 -46 37 -95 82 l-89 82 0 152 0
152 -170 156 -170 156 -49 0 c-48 0 -49 0 -56 37 -21 116 -119 193 -245 193
-76 0 -129 -21 -178 -71 -46 -46 -63 -83 -69 -150 -10 -109 32 -191 125 -247
40 -23 58 -27 122 -27 86 0 133 20 189 79 26 27 43 36 67 36 36 0 63 -20 200
-149 l84 -78 0 -151 0 -151 150 -138 149 -138 1 -437 c0 -241 -2 -438 -4 -438
-3 0 -63 38 -133 84 -652 424 -1422 740 -2176 891 -205 41 -515 88 -697 105
-69 7 -126 13 -127 14 -1 1 -3 1011 -5 2245 l-3 2243 90 -7 c50 -4 168 -17
263 -30z m2962 -3420 c33 -17 60 -61 60 -97 0 -68 -77 -120 -144 -98 -46 15
-68 42 -73 92 -10 87 77 144 157 103z m-964 -221 c68 -32 81 -114 28 -167 -36
-37 -76 -43 -122 -20 -75 39 -79 141 -8 184 38 23 58 24 102 3z m1909 2 c70
-30 83 -120 24 -170 -71 -60 -169 -11 -169 84 0 41 14 66 48 84 34 19 54 19
97 2z"/>
<path d="M10210 10749 c-102 -22 -110 -178 -11 -219 93 -38 193 68 148 157
-28 54 -75 75 -137 62z"/>
<path d="M10182 10217 c-20 -21 -22 -34 -22 -124 0 -56 3 -109 6 -118 10 -26
62 -47 96 -40 43 10 58 53 58 165 0 83 -2 93 -25 115 -32 33 -83 34 -113 2z"/>
<path d="M10695 10100 c-12 -4 -54 -45 -95 -90 -84 -94 -93 -126 -46 -167 47
-40 70 -31 161 58 46 44 86 91 89 104 10 38 -10 75 -49 90 -19 8 -36 15 -37
14 -2 0 -12 -4 -23 -9z"/>
<path d="M9692 10077 c-14 -15 -22 -36 -22 -59 0 -31 9 -44 79 -111 43 -41 88
-78 100 -82 47 -15 115 53 95 96 -5 10 -44 54 -86 98 -67 70 -82 81 -111 81
-22 0 -41 -8 -55 -23z"/>
<path d="M9566 9609 c-32 -25 -35 -75 -7 -110 18 -22 26 -24 116 -24 90 0 98
2 116 24 25 31 25 85 -1 111 -17 17 -33 20 -109 20 -74 0 -92 -3 -115 -21z"/>
<path d="M10698 9610 c-36 -27 -39 -89 -7 -118 23 -22 120 -37 166 -26 70 17
97 88 49 133 -19 18 -39 24 -103 28 -70 5 -81 3 -105 -17z"/>
</g>
</svg>
